# xmcd
#
# Track frame offsets:
# 150
# 26309
# 49993
# 65986
# 95938
#
# Disc length: 1574 seconds
#
#
# Revision: 0
# Processed by: cddbd v1.5.1PL0 Copyright (c) Steve Scherf et al.
# Submitted via: FreeRIP 2.931 
#
DISCID=47062405
DTITLE=you ge nv hai jiao feeling
DYEAR=1900
DGENRE=
TTITLE0=zhui chu
TTITLE1=bu ke yi ai ni
TTITLE2=qing ni nie ai wo
TTITLE3=zhi jian
TTITLE4=hou lai
EXTD=
EXTT0=
EXTT1=
EXTT2=
EXTT3=
EXTT4=
PLAYORDER=
